IKResults
version=1
nRows=33
nColumns=24
inDegrees=yes

Units are S.I. units (second, meters, Newtons, ...)
If the header above contains a line with 'inDegrees', this indicates whether rotational values are in degrees (yes) or radians (no).

endheader
time	pelvis_tilt	pelvis_list	pelvis_rotation	pelvis_tx	pelvis_ty	pelvis_tz	hip_flexion_r	hip_adduction_r	hip_rotation_r	knee_angle_r	ankle_angle_r	subtalar_angle_r	mtp_angle_r	hip_flexion_l	hip_adduction_l	hip_rotation_l	knee_angle_l	ankle_angle_l	subtalar_angle_l	mtp_angle_l	lumbar_extension	lumbar_bending	lumbar_rotation
0.900000	11.924616	3.163685	-179.009129	0.315998	0.679313	-1.236739	58.059778	-20.148669	-18.153481	-78.445334	28.222984	5.311687	0.000000	61.849267	-27.164910	-11.145021	-77.260525	26.564459	11.238658	0.000000	-4.550664	1.145119	3.200604
0.905000	12.143588	3.258793	-179.112668	0.317276	0.674728	-1.237233	58.916492	-20.121659	-17.875317	-79.355082	28.684884	5.708651	0.000000	62.830656	-27.475259	-10.817511	-78.208545	26.881442	11.242249	0.000000	-4.607614	1.295609	3.149436
0.910000	12.278615	3.278390	-179.124494	0.318289	0.670284	-1.237249	59.698520	-20.336848	-17.852308	-80.345108	28.933510	5.497456	0.000000	63.676922	-27.624275	-10.524259	-79.156535	27.197610	11.171600	0.000000	-4.679703	1.356411	3.183999
0.915000	12.410470	3.308418	-179.142640	0.319293	0.665806	-1.237259	60.468093	-20.521051	-17.743848	-81.303242	29.249167	5.470427	0.000000	64.529016	-27.794300	-10.228790	-80.089050	27.444072	11.063005	0.000000	-4.755891	1.408975	3.272469
0.920000	12.469127	3.273399	-179.077542	0.320123	0.661449	-1.236859	61.134388	-20.867882	-17.618915	-82.257223	29.587815	5.618363	0.000000	65.270957	-27.840679	-9.994487	-81.025846	27.703998	10.942094	0.000000	-4.841782	1.385246	3.465781
0.925000	12.640389	3.383286	-179.123927	0.321261	0.656829	-1.237346	61.921739	-20.926796	-17.542458	-83.186065	29.928390	5.663079	0.000000	66.246224	-28.120635	-9.616281	-81.965217	27.898468	10.889938	0.000000	-4.869210	1.478401	3.499524
0.930000	12.739993	3.429399	-179.096083	0.322188	0.652273	-1.237433	62.619383	-21.139442	-17.448036	-84.118975	30.262310	5.789276	0.000000	67.091048	-28.279975	-9.294044	-82.891975	28.109738	10.668781	0.000000	-4.971581	1.530026	3.566130
0.935000	12.835985	3.466911	-179.068499	0.323055	0.647679	-1.237460	63.321383	-21.378447	-17.367659	-85.056269	30.587950	5.894782	0.000000	67.939822	-28.434568	-8.994323	-83.811688	28.464331	10.896427	0.000000	-5.067308	1.597398	3.555950
0.940000	12.910015	3.520048	-179.069063	0.323877	0.643115	-1.237448	64.002995	-21.590730	-17.285601	-85.991016	30.896675	6.000569	0.000000	68.753810	-28.613963	-8.675614	-84.726350	28.755875	10.969821	0.000000	-5.170255	1.676064	3.625777
0.945000	12.986206	3.581592	-179.078256	0.324661	0.638549	-1.237452	64.690495	-21.803411	-17.227004	-86.933142	31.222314	6.071840	0.000000	69.572031	-28.799638	-8.333403	-85.650469	29.016286	10.831846	0.000000	-5.270329	1.766905	3.657342
0.950000	13.031558	3.622001	-179.065237	0.325390	0.633991	-1.237439	65.344761	-22.037677	-17.140472	-87.872938	31.534716	6.160691	0.000000	70.346833	-28.959373	-8.021053	-86.560035	29.309331	10.903580	0.000000	-5.398003	1.844564	3.652564
0.955000	13.069449	3.642372	-179.024463	0.326095	0.629420	-1.237458	65.980657	-22.308251	-17.046425	-88.800915	31.873861	6.283026	0.000000	71.108403	-29.079012	-7.711322	-87.460407	29.585538	11.010073	0.000000	-5.527843	1.879105	3.626531
0.960000	13.075664	3.643744	-178.982187	0.326743	0.624924	-1.237440	66.571547	-22.578782	-16.876094	-89.697778	32.284100	6.640612	0.000000	71.888475	-29.212849	-7.438134	-88.568435	29.603895	11.047949	0.000000	-5.677745	1.920030	3.518519
0.965000	13.101452	3.654670	-178.939744	0.327366	0.620468	-1.237467	67.192587	-22.842783	-16.780219	-90.611891	32.592118	6.702886	0.000000	72.621924	-29.327111	-7.144991	-89.446111	29.922494	11.231497	0.000000	-5.808458	1.912273	3.562545
0.970000	13.109894	3.672549	-178.904448	0.327935	0.615981	-1.237416	67.801387	-23.118272	-16.696123	-91.548938	32.888434	6.763699	0.000000	73.305935	-29.435560	-6.853673	-90.198787	30.306678	11.398131	0.000000	-5.935407	1.930967	3.611198
0.975000	13.113877	3.664431	-178.909117	0.328457	0.611486	-1.237319	68.421731	-23.370724	-16.538760	-92.468368	33.201355	6.896336	0.000000	74.024676	-29.594961	-6.597974	-91.174333	30.522591	11.542309	0.000000	-6.064674	1.937192	3.658135
0.980000	13.134905	3.629040	-178.881294	0.328983	0.606994	-1.237226	69.037050	-23.622068	-16.207653	-93.340358	33.664232	7.545161	0.000000	74.711069	-29.682112	-6.359269	-92.024420	30.754119	11.659609	0.000000	-6.170095	1.916161	3.681452
0.985000	13.097681	3.553366	-178.828324	0.329428	0.602550	-1.237148	69.642308	-23.951758	-16.104608	-94.277120	33.851640	7.252445	0.000000	75.303680	-29.743618	-6.172622	-92.872923	31.016430	11.778871	0.000000	-6.330418	1.908261	3.515484
0.990000	13.083152	3.502664	-178.793094	0.329876	0.598137	-1.237085	70.248689	-24.206828	-15.865629	-95.163561	34.143352	7.305646	0.000000	75.946470	-29.836256	-5.964137	-93.770361	31.187909	11.882239	0.000000	-6.484503	1.820476	3.597687
0.995000	13.071412	3.432183	-178.771359	0.330285	0.593778	-1.237061	70.874272	-24.451073	-15.602999	-96.050616	34.447993	7.371704	0.000000	76.547022	-29.918857	-5.772150	-94.586904	31.435369	11.926656	0.000000	-6.605679	1.784418	3.541052
1.000000	13.061973	3.402435	-178.778970	0.330662	0.589433	-1.236985	71.484394	-24.639657	-15.362395	-96.914435	34.713744	7.444538	0.000000	77.177077	-30.062463	-5.569680	-95.416727	31.677026	12.003320	0.000000	-6.741753	1.725825	3.673899
1.005000	13.033263	3.328341	-178.739567	0.331017	0.585112	-1.236931	72.084317	-24.889993	-15.094396	-97.782268	35.001226	7.511275	0.000000	77.755848	-30.141050	-5.401485	-96.227524	31.928819	12.097907	0.000000	-6.875013	1.684599	3.593672
1.010000	13.026254	3.269573	-178.717490	0.331370	0.580786	-1.236845	72.690129	-25.100495	-14.814639	-98.617795	35.281421	7.607072	0.000000	78.355345	-30.222417	-5.204036	-97.026142	32.188193	12.252383	0.000000	-6.995324	1.607239	3.643740
1.015000	13.006387	3.197022	-178.719240	0.331708	0.576498	-1.236809	73.293509	-25.286784	-14.509630	-99.448680	35.558882	7.685033	0.000000	78.926946	-30.340672	-5.037595	-97.825833	32.444280	12.405192	0.000000	-7.130949	1.569599	3.645878
1.020000	13.003283	3.167590	-178.741841	0.332035	0.572251	-1.236756	73.903477	-25.436916	-14.250102	-100.272376	35.776867	7.724601	0.000000	79.544093	-30.479998	-4.819524	-98.621137	32.682270	12.528404	0.000000	-7.262579	1.522517	3.768348
1.025000	13.001433	3.150987	-178.802432	0.332356	0.568014	-1.236731	74.514720	-25.537375	-13.983076	-101.083136	36.008871	7.753141	0.000000	80.162322	-30.652321	-4.583971	-99.412860	32.939217	12.673251	0.000000	-7.382188	1.561440	3.764797
1.030000	12.960575	3.128960	-178.845965	0.332619	0.563809	-1.236608	75.074464	-25.651415	-13.710147	-101.887993	36.282378	7.733291	0.000000	80.735942	-30.802580	-4.348795	-100.205739	33.208390	12.722912	0.000000	-7.558896	1.523968	3.927789
1.035000	13.002323	3.110226	-178.890333	0.333017	0.559596	-1.236585	75.715247	-25.750751	-13.433760	-102.654375	36.461985	7.829849	0.000000	81.392228	-30.941909	-4.115909	-100.925318	33.474119	12.887863	0.000000	-7.648944	1.513555	3.988781
1.040000	12.982495	3.100111	-178.925216	0.333351	0.555520	-1.236631	76.271911	-25.819221	-13.158477	-103.408403	36.689207	7.856398	0.000000	81.970834	-31.072547	-3.844958	-101.662582	33.745076	13.045816	0.000000	-7.801952	1.548437	3.957800
1.045000	12.951735	3.093494	-178.953119	0.333616	0.551434	-1.236584	76.810510	-25.914253	-12.894500	-104.163242	36.931211	7.913425	0.000000	82.555062	-31.201581	-3.577935	-102.436546	34.004025	13.190821	0.000000	-7.968629	1.524481	4.038283
1.050000	12.924873	3.098434	-179.013931	0.333915	0.547416	-1.236521	77.354000	-25.954097	-12.604188	-104.889734	37.205898	7.975412	0.000000	83.137551	-31.347806	-3.307820	-103.189685	34.290023	13.236160	0.000000	-8.138534	1.535403	4.197331
1.055000	12.912522	3.103296	-179.060473	0.334187	0.543373	-1.236366	77.923018	-26.040631	-12.368558	-105.641204	37.369984	7.944773	0.000000	83.739283	-31.464036	-3.016184	-103.938801	34.466446	13.335792	0.000000	-8.294487	1.548002	4.317735
1.060000	12.875871	3.105510	-179.113164	0.334439	0.539457	-1.236274	78.448957	-26.084536	-12.103852	-106.358893	37.564541	7.896450	0.000000	84.308943	-31.581789	-2.720595	-104.676445	34.681396	13.409344	0.000000	-8.465037	1.577823	4.411397
